<svg width="44" height="17" viewBox="0 0 44 17" fill="none" xmlns="http://www.w3.org/2000/svg">
<path fill-rule="evenodd" clip-rule="evenodd" d="M13.6531 14.7083H21.4246L24.9674 1.45117H13.6531C9.996 1.45117 7.02457 4.4226 7.02457 8.07974C7.02457 11.7369 9.996 14.7083 13.6531 14.7083Z" fill="white"/>
<path fill-rule="evenodd" clip-rule="evenodd" d="M31.0246 0.0795898H13.6531C9.19599 0.0795898 5.65314 3.62245 5.65314 8.07959C5.65314 12.5367 9.19599 16.0796 13.6531 16.0796H31.0246C35.4817 16.0796 39.0246 12.5367 39.0246 8.07959C39.0246 3.62245 35.3674 0.0795898 31.0246 0.0795898ZM7.02457 8.07959C7.02457 4.42245 9.99599 1.45102 13.6531 1.45102H24.9674L21.4246 14.7082H13.6531C9.99599 14.7082 7.02457 11.7367 7.02457 8.07959Z" fill="#0066FF"/>
<path d="M33.3103 4.65092C33.5389 4.87949 33.5389 5.33664 33.3103 5.56521L30.9103 8.07949L33.4246 10.5938C33.6531 10.8223 33.6531 11.2795 33.4246 11.5081C33.196 11.7366 32.7389 11.7366 32.5103 11.5081L29.996 8.99378L27.4817 11.5081C27.2531 11.7366 26.796 11.7366 26.5674 11.5081C26.3389 11.2795 26.3389 10.8223 26.5674 10.5938L28.9674 8.07949L26.4531 5.56521C26.2246 5.33664 26.2246 4.87949 26.4531 4.65092C26.6817 4.42235 27.1388 4.42235 27.3674 4.65092L29.8817 7.16521L32.396 4.65092C32.6246 4.42235 33.0817 4.42235 33.3103 4.65092Z" fill="white"/>
<path d="M19.7103 4.76518C19.9389 4.99375 20.0531 5.45089 19.8246 5.67946L15.0246 11.2795C14.9103 11.3938 14.796 11.508 14.6817 11.508C14.4531 11.6223 14.1103 11.6223 13.8817 11.3938L11.3674 8.87946C11.1389 8.65089 11.1389 8.19375 11.3674 7.96518C11.596 7.73661 12.0531 7.73661 12.2817 7.96518L14.3389 9.90804L18.6817 4.76518C18.9103 4.53661 19.3674 4.53661 19.7103 4.76518Z" fill="#0066FF"/>
</svg>
