<svg width="21" height="21" viewBox="0 0 21 21" fill="none" xmlns="http://www.w3.org/2000/svg">
<path d="M10.0388 0.0795898C10.9568 0.0795898 11.8406 0.200033 12.6902 0.440918C13.5398 0.681803 14.3341 1.01872 15.073 1.45166C15.812 1.8846 16.4874 2.40706 17.0994 3.01904C17.7114 3.63102 18.2338 4.30648 18.6668 5.04541C19.0997 5.78434 19.4366 6.57861 19.6775 7.42822C19.9184 8.27783 20.0388 9.16162 20.0388 10.0796C20.0388 10.9976 19.9184 11.8813 19.6775 12.731C19.4366 13.5806 19.0997 14.3748 18.6668 15.1138C18.2338 15.8527 17.7114 16.5282 17.0994 17.1401C16.4874 17.7521 15.812 18.2746 15.073 18.7075C14.3341 19.1405 13.5398 19.4774 12.6902 19.7183C11.8406 19.9591 10.9568 20.0796 10.0388 20.0796C9.12088 20.0796 8.23709 19.9591 7.38748 19.7183C6.53787 19.4774 5.7436 19.1405 5.00467 18.7075C4.26574 18.2746 3.59028 17.7521 2.9783 17.1401C2.36632 16.5282 1.84386 15.8527 1.41092 15.1138C0.977976 14.3748 0.641062 13.5806 0.400177 12.731C0.159292 11.8813 0.0388489 10.9976 0.0388489 10.0796C0.0388489 9.16162 0.159292 8.27783 0.400177 7.42822C0.641062 6.57861 0.977976 5.78434 1.41092 5.04541C1.84386 4.30648 2.36632 3.63102 2.9783 3.01904C3.59028 2.40706 4.26574 1.8846 5.00467 1.45166C5.7436 1.01872 6.53787 0.681803 7.38748 0.440918C8.23709 0.200033 9.12088 0.0795898 10.0388 0.0795898ZM5.83963 17.7456C5.8201 17.6675 5.81033 17.5926 5.81033 17.521C5.81033 17.4559 5.8201 17.3745 5.83963 17.2769C5.85916 17.1792 5.89009 17.062 5.9324 16.9253C5.97472 16.7886 6.01704 16.6502 6.05936 16.5103C6.10167 16.3703 6.12283 16.2319 6.12283 16.0952C6.12283 15.7827 6.05285 15.4491 5.91287 15.0942C5.7729 14.7394 5.62967 14.3927 5.48318 14.0542C5.3367 13.7157 5.22765 13.4373 5.15604 13.2192C5.08442 13.0011 5.04861 12.8335 5.04861 12.7163C5.04861 12.5926 5.07466 12.4819 5.12674 12.3843L4.98026 12.3159C5.01932 12.2248 5.07303 12.1369 5.14139 12.0522C5.20975 11.9676 5.27485 11.8813 5.3367 11.7935C5.39855 11.7056 5.45389 11.616 5.50272 11.5249C5.55154 11.4338 5.57596 11.3361 5.57596 11.2319C5.57596 11.1668 5.56131 11.0968 5.53201 11.022C5.50272 10.9471 5.48156 10.8804 5.46854 10.8218L5.67361 10.8706C5.78429 10.6167 5.93566 10.4425 6.12772 10.3481C6.31977 10.2537 6.55578 10.2065 6.83572 10.2065C6.86828 10.2065 6.93664 10.2212 7.0408 10.2505C7.14497 10.2798 7.25565 10.314 7.37283 10.353C7.49002 10.3921 7.60233 10.4295 7.70975 10.4653C7.81717 10.5011 7.89367 10.5256 7.93924 10.5386C7.93924 10.5841 7.96691 10.6151 8.02225 10.6313C8.07759 10.6476 8.10526 10.6688 8.10526 10.6948L8.08572 10.7729C8.11177 10.7795 8.16059 10.8039 8.23221 10.8462C8.30382 10.8885 8.37869 10.9357 8.45682 10.9878C8.53494 11.0399 8.60981 11.092 8.68143 11.144C8.75304 11.1961 8.79861 11.2319 8.81815 11.2515C8.93533 11.2515 9.09484 11.2889 9.29666 11.3638C9.49848 11.4386 9.71821 11.5379 9.95584 11.6616C10.1935 11.7853 10.4344 11.9269 10.6785 12.0864C10.9226 12.2459 11.144 12.4087 11.3426 12.5747C11.5411 12.7407 11.7023 12.9035 11.826 13.063C11.9497 13.2225 12.0115 13.3641 12.0115 13.4878L11.6795 13.8394C11.686 13.924 11.6892 14.0054 11.6892 14.0835C11.6892 14.2983 11.6567 14.4839 11.5916 14.6401C11.5265 14.7964 11.4207 14.9299 11.2742 15.0405C11.1277 15.1512 10.9552 15.2489 10.7566 15.3335C10.5581 15.4181 10.3481 15.5288 10.1267 15.6655C10.1267 15.7892 10.0942 15.9292 10.0291 16.0854C9.96398 16.2417 9.88097 16.3866 9.78006 16.52C9.67915 16.6535 9.56196 16.7658 9.4285 16.8569C9.29503 16.9481 9.15994 16.9937 9.02322 16.9937L8.61307 16.6812C8.61958 16.6877 8.62283 16.6942 8.62283 16.7007C8.62283 16.7137 8.61795 16.7316 8.60818 16.7544C8.59842 16.7772 8.59028 16.7886 8.58377 16.7886C8.57726 16.7886 8.57075 16.7821 8.56424 16.769C8.60981 16.8472 8.6326 16.9351 8.6326 17.0327C8.6326 17.0848 8.62121 17.1662 8.59842 17.2769C8.57563 17.3875 8.52518 17.5275 8.44705 17.6968C8.36893 17.866 8.28104 18.0272 8.18338 18.1802C8.08572 18.3332 7.99783 18.4585 7.91971 18.5562C8.60981 18.7384 9.31619 18.8296 10.0388 18.8296C10.781 18.8296 11.5069 18.7352 12.2166 18.5464C12.9262 18.3576 13.5984 18.089 14.2332 17.7407C14.868 17.3924 15.4539 16.9692 15.991 16.4712C16.5281 15.9731 16.9985 15.4149 17.4021 14.7964C17.3175 14.6011 17.2361 14.4025 17.158 14.2007C17.0799 13.9989 17.0408 13.7905 17.0408 13.5757C17.0408 13.3413 17.0522 13.1509 17.075 13.0044C17.0978 12.8579 17.1189 12.7326 17.1385 12.6284C17.158 12.5243 17.171 12.4445 17.1775 12.3892C17.184 12.3338 17.1873 12.2964 17.1873 12.2769C17.1873 12.2052 17.1726 12.1206 17.1433 12.0229C17.114 11.9253 17.0587 11.7983 16.9773 11.6421C16.8959 11.4858 16.7771 11.284 16.6209 11.0366C16.6274 10.9845 16.6372 10.9211 16.6502 10.8462C16.6632 10.7713 16.6746 10.6965 16.6844 10.6216C16.6941 10.5467 16.699 10.48 16.699 10.4214C16.699 10.4019 16.6974 10.3693 16.6941 10.3237C16.6909 10.2782 16.6762 10.2326 16.6502 10.187C16.4809 10.1675 16.3035 10.1317 16.118 10.0796C15.9324 10.0275 15.7713 9.94938 15.6346 9.84521L15.6931 9.79639C15.5174 9.83545 15.3513 9.89567 15.1951 9.97705C15.0388 10.0584 14.8663 10.0991 14.6775 10.0991L14.5213 10.0796L14.5506 10.0112C14.4594 10.0373 14.3601 10.0698 14.2527 10.1089C14.1453 10.1479 14.046 10.1675 13.9549 10.1675C13.8898 10.1675 13.7954 10.1447 13.6717 10.0991C13.548 10.0535 13.4226 9.99821 13.2957 9.93311C13.1687 9.868 13.0581 9.79476 12.9637 9.71338C12.8693 9.632 12.8221 9.55876 12.8221 9.49365L12.8416 9.46436C12.809 9.42529 12.7667 9.38949 12.7146 9.35693C12.6625 9.32438 12.6121 9.29183 12.5633 9.25928C12.5144 9.22673 12.4737 9.19092 12.4412 9.15186C12.4086 9.11279 12.3924 9.06722 12.3924 9.01514L12.4998 8.92725L12.2752 8.89795L12.1971 8.60498C12.2101 8.63102 12.2329 8.64404 12.2654 8.64404C12.2719 8.64404 12.2898 8.64242 12.3191 8.63916C12.3484 8.6359 12.3728 8.62451 12.3924 8.60498L12.0408 8.41943L12.2849 7.79443C12.2263 7.57308 12.1971 7.38428 12.1971 7.22803C12.1971 7.1499 12.2133 7.04899 12.2459 6.92529C12.2784 6.8016 12.3566 6.67952 12.4803 6.55908C12.604 6.43864 12.7488 6.32145 12.9148 6.20752C13.0808 6.09359 13.2387 5.93571 13.3885 5.73389L13.3592 5.6167L14.0037 4.83545L14.1502 4.81592C14.3325 4.81592 14.5375 4.80778 14.7654 4.7915C14.9933 4.77523 15.2244 4.75244 15.4588 4.72314C15.6931 4.69385 15.9243 4.6613 16.1521 4.62549C16.38 4.58968 16.5883 4.54899 16.7771 4.50342C16.367 4.01514 15.9047 3.56917 15.3904 3.16553C15.3188 3.19157 15.2293 3.229 15.1219 3.27783C15.0144 3.32666 14.9119 3.38525 14.8142 3.45361C14.7166 3.52197 14.6336 3.59684 14.5652 3.67822C14.4969 3.7596 14.4627 3.84912 14.4627 3.94678L14.5213 4.13232C14.3976 4.32764 14.2625 4.44971 14.116 4.49854C13.9695 4.54736 13.8149 4.57178 13.6521 4.57178C13.5024 4.57178 13.3868 4.57015 13.3055 4.56689C13.2241 4.56364 13.1801 4.56201 13.1736 4.56201C13.0304 4.56201 12.8904 4.59131 12.7537 4.6499L12.5974 4.31787L12.7439 3.75146L12.5779 3.50732L14.2674 2.97998C14.1957 2.79769 14.0769 2.66097 13.9109 2.56982C13.7449 2.47868 13.5675 2.43311 13.3787 2.43311V2.33545L13.9256 2.24756C13.3136 1.94808 12.6837 1.72021 12.0359 1.56396C11.3881 1.40771 10.7224 1.32959 10.0388 1.32959C9.47244 1.32959 8.91255 1.38493 8.35916 1.49561C7.80578 1.60628 7.26867 1.76742 6.74783 1.979C6.227 2.19059 5.73058 2.44938 5.25858 2.75537C4.78657 3.06136 4.34874 3.41292 3.9451 3.81006C4.11437 3.81006 4.24621 3.854 4.34061 3.94189C4.43501 4.02979 4.51964 4.12419 4.59451 4.2251C4.66938 4.32601 4.74914 4.42041 4.83377 4.5083C4.91841 4.59619 5.03234 4.64014 5.17557 4.64014L5.33182 4.52295L5.31229 4.30811L5.63455 3.84912L5.38065 3.12646C5.4132 3.10693 5.46365 3.07438 5.53201 3.02881C5.60037 2.98324 5.65408 2.96045 5.69315 2.96045C5.88846 2.96045 6.03983 2.97021 6.14725 2.98975C6.25467 3.00928 6.34419 3.04671 6.4158 3.10205C6.48742 3.15739 6.55578 3.23226 6.62088 3.32666C6.68598 3.42106 6.77713 3.54313 6.89432 3.69287L7.24588 3.41943C7.31749 3.44548 7.42492 3.48942 7.56815 3.55127C7.71137 3.61312 7.8546 3.68473 7.99783 3.76611C8.14106 3.84749 8.26802 3.93376 8.37869 4.0249C8.48937 4.11605 8.54471 4.20068 8.54471 4.27881C8.54471 4.42204 8.46496 4.5262 8.30545 4.59131C8.14595 4.65641 7.97179 4.7085 7.78299 4.74756C7.59419 4.78662 7.42003 4.82731 7.26053 4.86963C7.10102 4.91195 7.02127 4.98519 7.02127 5.08936L7.58768 5.2749C7.45747 5.38558 7.31587 5.48812 7.16287 5.58252C7.00988 5.67692 6.85526 5.75993 6.69901 5.83154L6.73807 5.99756L5.83963 6.34912V6.62256L5.77127 6.65186L5.8201 6.31006L5.78104 6.30029C5.73546 6.30029 5.70942 6.30843 5.70291 6.32471C5.6964 6.34098 5.69315 6.35563 5.69315 6.36865C5.69315 6.37516 5.69477 6.38818 5.69803 6.40771C5.70128 6.42725 5.70617 6.44678 5.71268 6.46631C5.71919 6.48584 5.72244 6.50212 5.72244 6.51514C5.72244 6.52165 5.72244 6.52816 5.72244 6.53467L5.59549 6.46631L5.61502 6.50537C5.61502 6.5249 5.62641 6.5542 5.6492 6.59326C5.67199 6.63232 5.69803 6.66976 5.72733 6.70557C5.75662 6.74137 5.78266 6.77393 5.80545 6.80322C5.82824 6.83252 5.83963 6.84717 5.83963 6.84717C5.83963 6.8667 5.82498 6.88623 5.79568 6.90576C5.76639 6.92529 5.73546 6.93994 5.70291 6.94971C5.67036 6.95947 5.64757 6.96598 5.63455 6.96924C5.62153 6.97249 5.61502 6.97738 5.61502 6.98389C5.61502 6.98389 5.61828 6.98389 5.62479 6.98389C5.68338 6.98389 5.71268 6.98714 5.71268 6.99365C5.71268 6.99365 5.69315 6.99854 5.65408 7.0083C5.61502 7.01807 5.54341 7.04899 5.43924 7.10107C5.33507 7.15316 5.23253 7.22965 5.13162 7.33057C5.03071 7.43148 4.98026 7.57308 4.98026 7.75537C4.98026 7.86605 4.98351 7.95557 4.99002 8.02393C4.99653 8.09229 4.99979 8.146 4.99979 8.18506C4.99979 8.25667 4.99328 8.32829 4.98026 8.3999C4.79145 7.89209 4.43338 7.63818 3.90604 7.63818L3.48611 7.67725L3.69119 7.81396C3.60005 7.80094 3.50727 7.78955 3.41287 7.77979C3.31847 7.77002 3.22244 7.76514 3.12479 7.76514C2.98156 7.76514 2.84484 7.78467 2.71463 7.82373C2.58442 7.86279 2.46723 7.93766 2.36307 8.04834L2.30447 8.48779C2.30447 8.69613 2.35167 8.86702 2.44608 9.00049C2.54048 9.13395 2.69835 9.20068 2.91971 9.20068C3.11502 9.20068 3.30708 9.16976 3.49588 9.10791C3.68468 9.04606 3.87023 8.97933 4.05252 8.90771C3.99393 9.05094 3.92882 9.18929 3.85721 9.32275C3.78559 9.45622 3.73351 9.59782 3.70096 9.74756L3.82791 9.80615C3.91906 9.74756 4.00369 9.71826 4.08182 9.71826C4.19901 9.71826 4.31294 9.76546 4.42361 9.85986C4.53429 9.95426 4.64334 10.0633 4.75076 10.187C4.85818 10.3107 4.96886 10.4312 5.08279 10.5483C5.19673 10.6655 5.31554 10.7502 5.43924 10.8022L5.10721 10.978L4.32596 10.5386C4.33247 10.5516 4.33898 10.5728 4.34549 10.6021C4.352 10.6313 4.35526 10.6493 4.35526 10.6558C4.35526 10.6623 4.35526 10.6655 4.35526 10.6655C4.34874 10.6655 4.34223 10.6623 4.33572 10.6558L3.98416 10.0601C3.77583 10.0535 3.55285 10.0194 3.31522 9.95752C3.07759 9.89567 2.84158 9.81755 2.60721 9.72314C2.37283 9.62874 2.1466 9.52132 1.9285 9.40088C1.7104 9.28044 1.51997 9.15837 1.35721 9.03467L1.28885 10.0796C1.28885 10.8674 1.39464 11.6405 1.60623 12.3989C1.81782 13.1574 2.12218 13.8703 2.51932 14.5376C2.91645 15.2049 3.39497 15.812 3.95486 16.3589C4.51476 16.9058 5.14302 17.368 5.83963 17.7456ZM16.7771 4.6499H16.8357C16.8683 4.6499 16.8878 4.65316 16.8943 4.65967L16.8064 4.54248C16.8064 4.59456 16.7967 4.63037 16.7771 4.6499ZM17.4803 5.49951C17.3891 5.35628 17.298 5.21794 17.2068 5.08447C17.1157 4.95101 17.0213 4.81917 16.9236 4.68896C16.9106 4.74756 16.8927 4.78988 16.8699 4.81592C16.8471 4.84196 16.8357 4.90055 16.8357 4.9917C16.8357 5.05029 16.8601 5.10726 16.909 5.1626C16.9578 5.21794 17.0164 5.26839 17.0847 5.31396C17.1531 5.35954 17.2247 5.3986 17.2996 5.43115C17.3745 5.4637 17.4347 5.48649 17.4803 5.49951ZM4.34549 8.85889C4.39106 8.81331 4.4757 8.77588 4.5994 8.74658C4.72309 8.71729 4.81749 8.70264 4.8826 8.70264C4.96723 8.70264 5.06164 8.71729 5.1658 8.74658C5.26997 8.77588 5.37576 8.81006 5.48318 8.84912C5.59061 8.88818 5.69477 8.9305 5.79568 8.97607C5.8966 9.02165 5.98937 9.06071 6.07401 9.09326C6.02192 9.09977 5.96821 9.10628 5.91287 9.11279C5.85753 9.1193 5.80382 9.12256 5.75174 9.12256C5.64757 9.12256 5.54829 9.10465 5.45389 9.06885C5.35949 9.03304 5.2716 8.99235 5.19022 8.94678C5.10884 8.9012 5.03234 8.86051 4.96072 8.82471C4.88911 8.7889 4.81749 8.771 4.74588 8.771C4.68078 8.771 4.62218 8.78402 4.5701 8.81006C4.51802 8.8361 4.46593 8.8654 4.41385 8.89795C4.41385 8.87191 4.39106 8.85889 4.34549 8.85889ZM6.02518 9.35693C6.05773 9.30485 6.09028 9.27067 6.12283 9.25439C6.15539 9.23812 6.18143 9.20068 6.20096 9.14209C6.45486 9.14209 6.69901 9.18766 6.93338 9.27881C6.84223 9.31136 6.75109 9.33903 6.65994 9.36182C6.5688 9.3846 6.4744 9.396 6.37674 9.396C6.24002 9.396 6.12283 9.38298 6.02518 9.35693Z" fill="#616161"/>
</svg>
