<svg width="19" height="19" viewBox="0 0 19 19" fill="none" xmlns="http://www.w3.org/2000/svg">
<path d="M9.19885 0.0668945C6.74885 0.0668945 6.48635 0.0668949 5.52385 0.154395C4.56135 0.241895 3.86135 0.329395 3.33635 0.591895C2.72385 0.766895 2.19885 1.11689 1.67385 1.64189C1.23635 2.07939 0.886352 2.60439 0.711352 3.21689C0.448852 3.74189 0.273852 4.44189 0.273852 5.40439C0.186352 6.36689 0.186352 6.62939 0.186352 9.07939C0.186352 11.5294 0.186352 11.7919 0.273852 12.7544C0.273852 13.7169 0.448852 14.3294 0.711352 14.9419C0.973852 15.5544 1.23635 15.9919 1.76135 16.5169C2.28635 17.0419 2.72385 17.3044 3.33635 17.5669C3.94885 17.8294 4.56135 17.9169 5.52385 18.0044C6.48635 18.0919 6.74885 18.0919 9.19885 18.0919C11.6489 18.0919 11.9114 18.0919 12.8739 18.0044C13.8364 18.0044 14.4489 17.8294 15.0614 17.5669C15.6739 17.3044 16.1114 17.0419 16.6363 16.5169C17.1613 15.9919 17.4239 15.5544 17.6864 14.9419C17.9489 14.3294 18.0364 13.7169 18.1239 12.7544C18.2114 11.7919 18.2113 11.5294 18.2113 9.07939C18.2113 6.62939 18.2114 6.36689 18.1239 5.40439C18.1239 4.44189 17.9489 3.82939 17.6864 3.21689C17.4239 2.60439 17.1613 2.16689 16.6363 1.64189C16.1114 1.11689 15.6739 0.854395 15.0614 0.591895C14.4489 0.329395 13.8364 0.241895 12.8739 0.154395C11.9114 0.154395 11.6489 0.0668945 9.19885 0.0668945ZM9.19885 1.72939C11.5614 1.72939 11.9114 1.72939 12.8739 1.81689C13.7489 1.81689 14.1864 1.99189 14.5364 2.16689C14.9739 2.34189 15.2363 2.51689 15.5863 2.86689C15.9363 3.21689 16.1114 3.47939 16.2864 3.91689C16.3739 4.26689 16.5488 4.70439 16.6363 5.57939C16.6363 6.54189 16.7239 6.80439 16.7239 9.25439C16.7239 11.7044 16.7238 11.9669 16.6363 12.9294C16.6363 13.8044 16.4614 14.2419 16.2864 14.5919C16.1114 15.0294 15.9363 15.2919 15.5863 15.6419C15.2363 15.9919 14.9739 16.1669 14.5364 16.3419C14.1864 16.4294 13.7489 16.6044 12.8739 16.6919C11.9114 16.6919 11.6489 16.7794 9.19885 16.7794C6.74885 16.7794 6.48635 16.7794 5.52385 16.6919C4.64885 16.6919 4.21135 16.5169 3.86135 16.3419C3.2576 15.9219 3.16135 15.7294 2.89885 15.4669C2.54885 15.1169 2.37385 14.8544 2.19885 14.4169C2.11135 14.0669 1.93635 13.6294 1.84885 12.7544C1.84885 11.7919 1.76135 11.5294 1.76135 9.07939C1.76135 6.71689 1.76135 6.36689 1.84885 5.40439C1.84885 4.52939 2.02385 4.09189 2.19885 3.74189C2.37385 3.30439 2.54885 3.04189 2.89885 2.69189C3.16135 2.42939 3.51135 2.25439 3.86135 2.07939C4.21135 1.99189 4.64885 1.81689 5.52385 1.72939C6.48635 1.72939 6.83635 1.72939 9.19885 1.72939Z" fill="#171717"/>
<path d="M9.19885 12.0544C7.53635 12.0544 6.22385 10.7419 6.22385 9.07939C6.22385 7.41689 7.53635 6.1044 9.19885 6.1044C10.8614 6.1044 12.1739 7.41689 12.1739 9.07939C12.1739 10.7419 10.8614 12.0544 9.19885 12.0544ZM9.19885 4.44189C6.66135 4.44189 4.56135 6.54189 4.56135 9.07939C4.56135 11.6169 6.66135 13.7169 9.19885 13.7169C11.7364 13.7169 13.8364 11.6169 13.8364 9.07939C13.8364 6.54189 11.7364 4.44189 9.19885 4.44189Z" fill="#171717"/>
<path d="M15.0614 4.2668C15.0614 4.8793 14.5364 5.3168 14.0114 5.3168C13.3989 5.3168 12.9613 4.7918 12.9613 4.2668C12.9613 3.7418 13.3989 3.2168 14.0114 3.2168C14.6239 3.2168 15.0614 3.7418 15.0614 4.2668Z" fill="#171717"/>
</svg>
