<svg width="17" height="20" viewBox="0 0 17 20" fill="none" xmlns="http://www.w3.org/2000/svg">
<path d="M13.8076 4.58467C12.8188 3.93717 12.1101 2.91342 11.8826 1.70592C11.8388 1.44342 11.8038 1.18092 11.8038 0.909668H8.65385V13.5359C8.5926 14.9534 7.42885 16.0822 6.0026 16.0822C5.55635 16.0822 5.1451 15.9684 4.7776 15.7759C3.9376 15.3297 3.3601 14.4459 3.3601 13.4309C3.3601 11.9697 4.5501 10.7797 6.01135 10.7797C6.2826 10.7797 6.5451 10.8234 6.7901 10.9022V7.68217C6.53635 7.64717 6.27385 7.62967 6.01135 7.62967C2.80885 7.62967 0.210098 10.2284 0.210098 13.4309C0.210098 15.3909 1.1901 17.1322 2.68635 18.1822C3.63135 18.8472 4.7776 19.2322 6.01135 19.2322C9.21385 19.2322 11.8126 16.6334 11.8126 13.4309V7.02592C13.0463 7.90967 14.5601 8.43467 16.1963 8.43467V5.28467C15.3126 5.28467 14.4988 5.02217 13.8076 4.57592V4.58467Z" fill="black"/>
</svg>
