<svg width="19" height="20" viewBox="0 0 19 20" fill="none" xmlns="http://www.w3.org/2000/svg">
<path fill-rule="evenodd" clip-rule="evenodd" d="M15.6651 3.57846C13.9501 1.86346 11.6664 0.918457 9.2426 0.918457C4.2376 0.918457 0.160103 4.99596 0.160103 10.001C0.160103 11.6022 0.580103 13.1685 1.37635 14.5422L0.0901031 19.2497L4.9026 17.9897C6.2326 18.716 7.7201 19.0922 9.2426 19.0922C14.2476 19.0922 18.3251 15.0147 18.3251 10.0097C18.3251 7.58596 17.3801 5.30221 15.6651 3.58721V3.57846ZM9.2426 17.5522C7.88635 17.5522 6.55635 17.1847 5.40135 16.5022L5.12135 16.336L2.2601 17.0885L3.02135 14.306L2.8376 14.0172C2.0851 12.8185 1.6826 11.4272 1.6826 10.001C1.6826 5.83596 5.06885 2.44971 9.23385 2.44971C11.2464 2.44971 13.1451 3.23721 14.5714 4.66346C15.9976 6.08971 16.7851 7.98846 16.7764 10.001C16.7764 14.166 13.3901 17.5522 9.2251 17.5522H9.2426ZM13.3814 11.8997C13.1539 11.786 12.0426 11.2347 11.8326 11.1647C11.6226 11.086 11.4739 11.051 11.3251 11.2785C11.1764 11.506 10.7389 12.0135 10.6076 12.171C10.4764 12.3197 10.3451 12.3372 10.1176 12.2235C9.8901 12.1097 9.1551 11.8735 8.28885 11.0947C7.6151 10.491 7.1601 9.74721 7.02885 9.51971C6.8976 9.29221 7.01135 9.16971 7.1251 9.05596C7.2301 8.95096 7.3526 8.79346 7.46635 8.66221C7.5801 8.53096 7.6151 8.43471 7.69385 8.28596C7.7726 8.13721 7.72885 8.00596 7.67635 7.89221C7.62385 7.77846 7.16885 6.65846 6.97635 6.20346C6.7926 5.75721 6.60885 5.81846 6.46885 5.80971C6.3376 5.80971 6.18885 5.80971 6.03135 5.80971C5.87385 5.80971 5.6376 5.86221 5.4276 6.08971C5.2176 6.31721 4.63135 6.86846 4.63135 7.97971C4.63135 9.09096 5.4451 10.176 5.55885 10.3247C5.6726 10.4735 7.1601 12.766 9.4351 13.7547C9.9776 13.991 10.3976 14.131 10.7301 14.236C11.2726 14.411 11.7714 14.3847 12.1564 14.3235C12.5939 14.2622 13.4951 13.7722 13.6876 13.2472C13.8801 12.7135 13.8801 12.2585 13.8189 12.171C13.7576 12.0835 13.6089 12.0222 13.3814 11.9085V11.8997Z" fill="black"/>
</svg>
