<svg width="29" height="29" viewBox="0 0 29 29" fill="none" xmlns="http://www.w3.org/2000/svg">
<g clip-path="url(#clip0_1_417)">
<path d="M28.1989 0.0795898H0.198853V28.0796H28.1989V0.0795898Z" fill="white"/>
<path d="M23.0364 9.61699C22.8614 8.82949 22.1614 8.21699 21.3739 7.95449C19.9739 7.60449 14.1989 7.60449 14.1989 7.60449C14.1989 7.60449 8.42385 7.60449 7.02385 7.95449C6.23635 8.12949 5.62385 8.82949 5.36135 9.61699C5.01135 11.1045 5.01135 14.0795 5.01135 14.0795C5.01135 14.0795 5.01135 17.0545 5.36135 18.542C5.53635 19.3295 6.23635 19.942 7.02385 20.2045C8.42385 20.5545 14.1989 20.5545 14.1989 20.5545C14.1989 20.5545 19.9739 20.5545 21.3739 20.2045C22.1614 20.0295 22.7739 19.3295 23.0364 18.542C23.3864 17.142 23.3864 14.0795 23.3864 14.0795C23.3864 14.0795 23.3864 11.1045 23.0364 9.61699Z" fill="#171717"/>
<path d="M12.3614 16.7922L17.0864 14.0797L12.3614 11.3672V16.7922Z" fill="white"/>
</g>
<defs>
<clipPath id="clip0_1_417">
<rect width="28" height="28" fill="white" transform="translate(0.198853 0.0795898)"/>
</clipPath>
</defs>
</svg>
