<svg width="44" height="47" viewBox="0 0 44 47" fill="none" xmlns="http://www.w3.org/2000/svg">
<path d="M42.8188 16.2494C42.3188 14.4494 41.6188 12.7494 40.6188 11.1494C39.7188 9.54944 38.6188 8.14944 37.3188 6.84944C36.0188 5.54944 34.6188 4.44944 33.0188 3.54944C31.4188 2.64944 29.7188 1.94944 27.9188 1.34944C26.2188 0.849438 24.3188 0.549438 22.3188 0.549438C20.3188 0.549438 18.4188 0.849438 16.6188 1.34944C14.8188 1.84944 13.1188 2.54944 11.5188 3.54944C9.91882 4.44944 8.51882 5.54944 7.21882 6.84944C5.91882 8.14944 4.81882 9.54944 3.91882 11.1494C3.01882 12.7494 2.31882 14.4494 1.71882 16.2494C1.21882 18.0494 0.918823 19.9494 0.918823 21.9494V41.5494C0.918823 42.2494 1.01882 42.9494 1.31882 43.6494C1.61882 44.2494 2.01882 44.8494 2.41882 45.3494C2.91882 45.8494 3.41882 46.2494 4.11882 46.4494C4.71882 46.7494 5.41882 46.8494 6.21882 46.8494H11.5188V25.4494H6.31882C5.71882 25.4494 5.11882 25.5494 4.51882 25.7494H4.41882V21.8494C4.41882 19.4494 4.91882 17.0494 5.81882 14.9494C6.71882 12.7494 8.01882 10.8494 9.61882 9.24944C11.2188 7.64944 13.1188 6.34944 15.3188 5.44944C17.5188 4.54944 19.8188 4.04944 22.2188 4.04944C24.6188 4.04944 27.0188 4.54944 29.1188 5.44944C31.3188 6.34944 33.2188 7.64944 34.8188 9.24944C36.4188 10.8494 37.7188 12.7494 38.6188 14.9494C39.5188 17.1494 40.0188 19.4494 40.0188 21.8494V25.7494H39.9188C39.3188 25.5494 38.7188 25.4494 38.1188 25.4494H32.8188V46.7494H38.3188C39.0188 46.7494 39.7188 46.6494 40.4188 46.3494C41.0188 46.0494 41.6188 45.6494 42.1188 45.2494C42.6188 44.7494 43.0188 44.2494 43.2188 43.5494C43.5188 42.9494 43.6188 42.2494 43.6188 41.4494V21.8494C43.6188 19.9494 43.4188 18.0494 42.8188 16.2494ZM5.01882 29.4494C5.41882 29.0494 5.81882 28.9494 6.31882 28.9494H8.11882V43.2494H6.31882C5.81882 43.2494 5.41882 43.0494 5.01882 42.7494C4.61882 42.3494 4.51882 41.9494 4.51882 41.4494V30.7494C4.51882 30.2494 4.61882 29.8494 5.01882 29.4494ZM40.1188 41.4494C40.1188 41.9494 39.9188 42.3494 39.6188 42.7494C39.2188 43.1494 38.8188 43.2494 38.3188 43.2494H36.5188V28.9494H38.3188C38.8188 28.9494 39.2188 29.1494 39.6188 29.4494C40.0188 29.8494 40.1188 30.2494 40.1188 30.7494V41.4494Z" fill="#107C10"/>
</svg>
