<svg width="24" height="47" viewBox="0 0 24 47" fill="none" xmlns="http://www.w3.org/2000/svg">
<path d="M8.63886 6.74949C7.93886 6.04949 6.83886 6.04949 6.23886 6.74949C5.93886 7.04949 5.73886 7.44949 5.73886 7.94949C5.73886 8.44949 5.93886 8.84949 6.23886 9.14949C6.53886 9.44949 6.93886 9.64949 7.43886 9.64949C7.93886 9.64949 8.33886 9.44949 8.63886 9.14949C8.93886 8.84949 9.13886 8.44949 9.13886 7.94949C9.13886 7.54949 9.03886 7.14949 8.63886 6.74949Z" fill="#107C10"/>
<path d="M0.0388489 0.549438V46.7494H23.4389V0.549438H0.0388489ZM5.73885 23.3494V43.3494H3.53885V3.94944H20.0388V43.2494H9.13885V23.2494H5.73885V23.3494Z" fill="#107C10"/>
</svg>
