<svg width="62" height="44" viewBox="0 0 62 44" fill="none" xmlns="http://www.w3.org/2000/svg">
<path d="M54.9689 43.3494C53.9689 43.3494 53.0689 42.5494 48.0689 37.9494C46.4689 36.4494 44.3689 34.5494 43.8689 34.1494C43.6689 34.0494 43.4689 33.9494 43.2689 33.7494C42.4689 33.2494 41.8689 32.8494 38.1689 32.8494C34.1689 32.7494 31.6689 32.8494 31.2689 32.8494C30.7689 32.8494 28.2689 32.8494 24.2689 32.8494C20.4689 32.9494 19.9689 33.2494 19.1689 33.7494C18.9689 33.8494 18.7689 33.9494 18.5689 34.1494C18.0689 34.4494 15.9689 36.4494 14.3689 37.8494C8.96886 42.8494 8.36886 43.3494 7.26886 43.2494C5.96886 43.1494 3.56886 42.1494 2.06886 39.8494C0.368856 37.2494 -0.0311435 34.0494 0.968856 28.8494C1.96886 23.3494 6.36886 8.94941 7.56886 6.74941C7.86886 6.14941 8.46886 5.54941 9.36886 5.04941C9.66886 3.64941 9.96886 3.14941 10.5689 2.74941L10.6689 2.64941C11.1689 2.34941 13.2689 1.04941 15.3689 0.649413C15.3689 0.649413 20.3689 -0.450587 21.7689 0.249413C21.8689 0.349413 22.0689 0.349414 22.2689 0.449414C22.6689 0.649414 23.6689 1.14941 24.0689 1.24941H25.4689C25.4689 1.24941 28.1689 1.24941 31.1689 1.24941C34.1689 1.24941 36.8689 1.24941 36.8689 1.24941H38.2689C38.6689 1.14941 39.5689 0.649414 39.9689 0.449414C40.1689 0.349414 40.3689 0.249413 40.4689 0.249413C41.9689 -0.450587 46.9689 0.649413 46.9689 0.649413C49.0689 1.04941 51.0689 2.44941 51.7689 2.84941L51.8689 2.94941C52.4689 3.34941 52.7689 3.84941 53.0689 5.24941C53.9689 5.74941 54.5689 6.34941 54.8689 6.94941C55.9689 9.14941 60.4689 23.4494 61.4689 29.0494C62.3689 34.2494 62.0689 37.3494 60.3689 40.0494C58.8689 42.3494 56.4689 43.3494 55.1689 43.4494C55.0689 43.3494 55.0689 43.3494 54.9689 43.3494ZM12.6689 5.54941C12.5689 5.74941 12.4689 6.14941 12.3689 6.64941L12.1689 7.44941L11.4689 7.84941C10.6689 8.24941 10.4689 8.54941 10.4689 8.54941C9.66886 10.2494 5.26886 24.1494 4.26886 29.5494C3.36886 34.7494 3.96886 36.6494 4.86886 37.9494C5.56886 38.9494 6.46886 39.4494 7.06886 39.6494C8.06886 38.8494 10.3689 36.7494 11.8689 35.3494C14.4689 32.9494 15.9689 31.5494 16.6689 31.1494C16.8689 31.0494 16.9689 30.9494 17.1689 30.8494C18.5689 29.9494 19.5689 29.4494 24.1689 29.3494C28.0689 29.2494 30.5689 29.3494 31.1689 29.3494C31.7689 29.3494 34.1689 29.3494 38.1689 29.3494C42.6689 29.4494 43.7689 29.9494 45.1689 30.8494C45.2689 30.9494 45.4689 31.0494 45.6689 31.1494C46.3689 31.5494 47.8689 32.9494 50.4689 35.3494C52.0689 36.8494 54.3689 38.9494 55.2689 39.6494C55.8689 39.4494 56.8689 38.9494 57.4689 37.9494C58.3689 36.6494 58.9689 34.7494 58.0689 29.5494C57.0689 24.1494 52.6689 10.1494 51.8689 8.44941C51.8689 8.44941 51.6689 8.24941 50.8689 7.84941L50.1689 7.44941L49.9689 6.64941C49.8689 6.14941 49.7689 5.74941 49.6689 5.54941C48.3689 4.74941 47.1689 4.14941 46.2689 4.04941C44.5689 3.64941 42.4689 3.44941 41.8689 3.44941C41.7689 3.44941 41.6689 3.54941 41.5689 3.54941C40.0689 4.24941 39.2689 4.64941 38.6689 4.64941C38.4689 4.64941 38.3689 4.64941 36.8689 4.64941H34.9689C33.9689 4.64941 32.5689 4.64941 31.1689 4.64941C29.7689 4.64941 28.3689 4.64941 27.2689 4.64941H25.3689C23.8689 4.64941 23.6689 4.64941 23.5689 4.64941C22.9689 4.54941 22.2689 4.24941 20.6689 3.54941C20.5689 3.54941 20.4689 3.44941 20.4689 3.44941C19.7689 3.44941 17.7689 3.64941 16.0689 4.04941C15.1689 4.24941 14.0689 4.74941 12.6689 5.54941Z" fill="#107C10"/>
<path d="M31.4689 13.6494C29.8689 13.6494 28.6689 12.3494 28.6689 10.8494C28.6689 9.24944 29.9689 8.04944 31.4689 8.04944C33.0689 8.04944 34.2689 9.34944 34.2689 10.8494C34.3689 12.3494 33.0689 13.6494 31.4689 13.6494Z" fill="#107C10"/>
</svg>
