<svg width="17" height="15" viewBox="0 0 17 15" fill="none" xmlns="http://www.w3.org/2000/svg">
<path d="M12.5388 11.0194C12.7472 11.0194 12.9425 11.0585 13.1248 11.1366C13.307 11.2147 13.4659 11.3215 13.6013 11.4569C13.7367 11.5923 13.8435 11.7512 13.9216 11.9335C13.9998 12.1158 14.0388 12.3111 14.0388 12.5194C14.0388 12.7277 13.9998 12.9231 13.9216 13.1053C13.8435 13.2876 13.7367 13.4465 13.6013 13.5819C13.4659 13.7173 13.307 13.8241 13.1248 13.9022C12.9425 13.9803 12.7472 14.0194 12.5388 14.0194C12.3305 14.0194 12.1352 13.9803 11.9529 13.9022C11.7706 13.8241 11.6117 13.7173 11.4763 13.5819C11.3409 13.4465 11.2341 13.2876 11.156 13.1053C11.0779 12.9231 11.0388 12.7277 11.0388 12.5194C11.0388 12.358 11.0675 12.1913 11.1248 12.0194H6.95288C7.01017 12.1913 7.03882 12.358 7.03882 12.5194C7.03882 12.7277 6.99976 12.9231 6.92163 13.1053C6.84351 13.2876 6.73674 13.4465 6.60132 13.5819C6.4659 13.7173 6.30705 13.8241 6.12476 13.9022C5.94246 13.9803 5.74715 14.0194 5.53882 14.0194C5.33049 14.0194 5.13517 13.9803 4.95288 13.9022C4.77059 13.8241 4.61174 13.7173 4.47632 13.5819C4.3409 13.4465 4.23413 13.2876 4.15601 13.1053C4.07788 12.9231 4.03882 12.7277 4.03882 12.5194C4.03882 12.233 4.11564 11.9673 4.26929 11.7225C4.42293 11.4777 4.62996 11.2928 4.89038 11.1678L1.51538 1.01941H0.0388184V0.0194092H2.23413L2.89819 2.01941H16.0388L13.7107 9.01941H5.23413L5.89819 11.0194H12.5388ZM3.23413 3.01941L4.89819 8.01941H12.9841L14.6482 3.01941H3.23413ZM6.03882 12.5194C6.03882 12.384 5.98934 12.2668 5.89038 12.1678C5.79142 12.0689 5.67424 12.0194 5.53882 12.0194C5.4034 12.0194 5.28621 12.0689 5.18726 12.1678C5.0883 12.2668 5.03882 12.384 5.03882 12.5194C5.03882 12.6548 5.0883 12.772 5.18726 12.871C5.28621 12.9699 5.4034 13.0194 5.53882 13.0194C5.67424 13.0194 5.79142 12.9699 5.89038 12.871C5.98934 12.772 6.03882 12.6548 6.03882 12.5194ZM12.5388 13.0194C12.6742 13.0194 12.7914 12.9699 12.8904 12.871C12.9893 12.772 13.0388 12.6548 13.0388 12.5194C13.0388 12.384 12.9893 12.2668 12.8904 12.1678C12.7914 12.0689 12.6742 12.0194 12.5388 12.0194C12.4034 12.0194 12.2862 12.0689 12.1873 12.1678C12.0883 12.2668 12.0388 12.384 12.0388 12.5194C12.0388 12.6548 12.0883 12.772 12.1873 12.871C12.2862 12.9699 12.4034 13.0194 12.5388 13.0194Z" fill="#262626"/>
</svg>
