<svg width="17" height="17" viewBox="0 0 17 17" fill="none" xmlns="http://www.w3.org/2000/svg">
<path d="M11.3489 0.0194092C11.8541 0.0194092 12.3411 0.0845134 12.8098 0.214722C13.2786 0.34493 13.7161 0.529826 14.1223 0.769409C14.5286 1.00899 14.8997 1.29675 15.2356 1.63269C15.5715 1.96863 15.8593 2.33972 16.0989 2.74597C16.3385 3.15222 16.5234 3.58972 16.6536 4.05847C16.7838 4.52722 16.8489 5.0142 16.8489 5.51941C16.8489 6.02462 16.7838 6.5116 16.6536 6.98035C16.5234 7.4491 16.3385 7.8866 16.0989 8.29285C15.8593 8.6991 15.5715 9.07019 15.2356 9.40613C14.8997 9.74207 14.5286 10.0298 14.1223 10.2694C13.7161 10.509 13.2786 10.6939 12.8098 10.8241C12.3411 10.9543 11.8541 11.0194 11.3489 11.0194C10.6978 11.0194 10.0741 10.91 9.47778 10.6913C8.88143 10.4725 8.33325 10.1574 7.83325 9.74597L1.70044 15.871C1.60148 15.9699 1.48429 16.0194 1.34888 16.0194C1.21346 16.0194 1.09627 15.9699 0.997314 15.871C0.898356 15.772 0.848877 15.6548 0.848877 15.5194C0.848877 15.384 0.898356 15.2668 0.997314 15.1678L7.12231 9.03503C6.71086 8.53503 6.39575 7.98686 6.177 7.3905C5.95825 6.79415 5.84888 6.17045 5.84888 5.51941C5.84888 5.0142 5.91398 4.52722 6.04419 4.05847C6.1744 3.58972 6.35929 3.15222 6.59888 2.74597C6.83846 2.33972 7.12622 1.96863 7.46216 1.63269C7.7981 1.29675 8.16919 1.00899 8.57544 0.769409C8.98169 0.529826 9.41919 0.34493 9.88794 0.214722C10.3567 0.0845134 10.8437 0.0194092 11.3489 0.0194092ZM11.3489 10.0194C11.9687 10.0194 12.552 9.90092 13.0989 9.66394C13.6458 9.42696 14.1223 9.10535 14.5286 8.6991C14.9348 8.29285 15.2564 7.81628 15.4934 7.26941C15.7304 6.72253 15.8489 6.1392 15.8489 5.51941C15.8489 4.89962 15.7304 4.31628 15.4934 3.76941C15.2564 3.22253 14.9348 2.74597 14.5286 2.33972C14.1223 1.93347 13.6458 1.61186 13.0989 1.37488C12.552 1.1379 11.9687 1.01941 11.3489 1.01941C10.7291 1.01941 10.1458 1.1379 9.59888 1.37488C9.052 1.61186 8.57544 1.93347 8.16919 2.33972C7.76294 2.74597 7.44132 3.22253 7.20435 3.76941C6.96737 4.31628 6.84888 4.89962 6.84888 5.51941C6.84888 6.1392 6.96737 6.72253 7.20435 7.26941C7.44132 7.81628 7.76294 8.29285 8.16919 8.6991C8.57544 9.10535 9.052 9.42696 9.59888 9.66394C10.1458 9.90092 10.7291 10.0194 11.3489 10.0194Z" fill="black"/>
</svg>
