<svg width="32" height="32" viewBox="0 0 32 32" fill="none" xmlns="http://www.w3.org/2000/svg">
<path d="M16.0388 31.1444C24.3921 31.1444 31.1638 24.3727 31.1638 16.0194C31.1638 7.6661 24.3921 0.894409 16.0388 0.894409C7.68551 0.894409 0.913818 7.6661 0.913818 16.0194C0.913818 24.3727 7.68551 31.1444 16.0388 31.1444Z" stroke="#707070" stroke-width="0.95"/>
<path d="M15.4387 15.4744C17.565 15.4744 19.2887 13.7507 19.2887 11.6244C19.2887 9.49812 17.565 7.77441 15.4387 7.77441C13.3124 7.77441 11.5887 9.49812 11.5887 11.6244C11.5887 13.7507 13.3124 15.4744 15.4387 15.4744Z" stroke="#707070" stroke-width="1.045"/>
<path d="M20.9388 22.0744H26.4388M23.6888 19.3244V24.8244M21.3969 20.4739C21.1342 18.9836 20.3225 17.6458 19.122 16.7245C17.9214 15.8032 16.4191 15.3653 14.9115 15.4972C13.404 15.629 12.0006 16.3211 10.9782 17.4369C9.95581 18.5527 9.38872 20.0111 9.38879 21.5244" stroke="#707070" stroke-width="1.045"/>
</svg>
